<svg width="40" height="40" viewBox="0 0 40 40" fill="none" xmlns="http://www.w3.org/2000/svg">
<rect width="40" height="40" rx="4" fill="#F2F2F2"/>
<path d="M20.5915 10.252H22.8315C25.8835 10.252 26.8915 12.352 27.4795 15.992L27.7315 17.588C27.8155 17.784 28.0675 17.784 27.9835 17.588L27.7875 15.992C27.3395 12.996 27.6195 10.28 27.4515 10.196C27.2555 10.112 25.9675 10 24.0355 10H24.0075C21.1795 10 20.7315 10.056 19.4995 10.056C18.2675 10.056 15.6635 10 14.9635 10C13.0315 10 11.7435 10.112 11.5475 10.196C11.4075 10.28 11.6035 12.996 11.2395 15.992L11.0155 17.588C10.9315 17.784 11.2115 17.784 11.2955 17.588L11.5195 15.992C12.0515 12.324 13.1715 10.28 16.1395 10.28C16.7835 10.28 17.6515 10.28 18.4355 10.252V22.432C18.4355 29.292 18.2955 29.432 16.9235 29.432H16.4195C16.1955 29.432 16.1955 29.684 16.4195 29.684C17.2035 29.684 19.1075 29.6 19.5275 29.6C19.9195 29.6 21.7955 29.684 22.6075 29.684C22.8315 29.684 22.8315 29.432 22.6075 29.432H22.1035C20.7315 29.432 20.5915 29.292 20.5915 22.432V10.252Z" fill="black"/>
</svg>
